<?xml version="1.0" encoding="UTF-8"?>
<svg id="Calque_1" data-name="Calque 1" xmlns="http://www.w3.org/2000/svg" viewBox="0 0 527.29 223.22">
  <defs>
    <style>
      .cls-1 {
        fill: #fff;
      }

      .cls-2 {
        fill: none;
        stroke: #fff;
        stroke-miterlimit: 10;
        stroke-width: .81px;
      }
    </style>
  </defs>
  <g>
    <g>
      <path class="cls-1" d="M281.07,27.37h23.08v95.33h-23.08V27.37Z"/>
      <path class="cls-1" d="M527.29,105v17.7h-77.23V27.37h75.38v17.7h-52.44v20.7h46.31v17.16h-46.31v22.06h54.29ZM492.24,19.61h-17.39L494.09,0h23.94l-25.79,19.61Z"/>
    </g>
    <g>
      <g>
        <path class="cls-1" d="M220.37,124.32c.08-.23.18-.46.26-.69,4.84-13.89,14.84-15.39,18.92-15.39,3.8,0,9.16,1.2,14.3,6.5,3.02-2.14,5.75-4.63,8.15-7.44l-14.82-13.07c-6.7,7.49-15.1,11.3-25.08,11.3-18.67,0-31.92-12.53-31.92-30.5s13.25-30.5,31.92-30.5c9.97,0,18.38,3.81,25.08,11.17l14.82-13.07c-9.41-10.9-23.8-16.89-41.04-16.89-31.06,0-54.15,20.56-54.15,49.3s22.87,49.09,53.57,49.29h-.01Z"/>
        <path class="cls-1" d="M400.05,27.37v57.88l-49.59-57.88h-19.1v95.33h12.27c3.18-3.91,6.7-7.55,10.53-10.53v-47.34l39.27,45.71c3.34,2.49,6.09,5.68,8.11,9.43l2.35,2.73h18.95V27.37h-22.8.01Z"/>
      </g>
      <g>
        <g>
          <path class="cls-1" d="M213.39,194.31c-1.13,2.3-3.11,4.46-3.81,5.4-1.55,2.03-3.82,4.05-5.79,5.67-2.68,2.3-6.08,3.51-9.33,3.51-3.81,0-7.63-1.76-9.75-6.08-.85-1.76-1.27-3.65-1.27-5.54,0-7.43,5.65-15.94,9.89-20.94,3.96-4.73,7.77-8.1,12.29-8.1,2.4,0,4.95.95,7.91,3.38,1.55,1.35,2.26,2.03,2.69,2.03.57,0,.85-1.08,1.84-3.51,1.7-4.32,3.25-8.51,5.09-12.83,4.1-9.46,8.9-18.77,12.3-28.5.99-2.84,2.26-4.86,4.1-4.86,1.13,0,2.54.95,4.1,2.97.99,1.35,1.41,2.84,1.41,4.32,0,2.43-.99,4.86-1.98,7.29-5.37,12.7-12.72,29.71-13.14,30.66-2.12,4.05-3.96,7.97-5.51,12.7-2.4,7.29-3.25,12.29-3.25,15.8,0,4.46,1.41,6.35,2.68,6.89.85.41,1.98.54,2.97.54,7.07,0,16.82-7.29,18.8-8.1,4.52-2.84-7.35,14.32-17.1,15.13-7.91.67-15.12-4.59-15.12-17.83h-.02ZM211.84,179.73c0-.95-1.7-2.84-2.69-2.84-4.95,0-17.81,15.67-17.81,22.01,0,.54-.14,1.49.85,1.49,4.38,0,19.64-17.02,19.64-20.66h.01Z"/>
          <path class="cls-1" d="M227.16,212.81c-3.51,0-6.62-1.16-9.06-3.4-3.1-2.85-4.9-7.3-5.25-12.96-.74,1.1-1.54,2.09-2.14,2.83-.26.32-.48.59-.64.8-1.32,1.73-3.25,3.61-5.9,5.78-2.71,2.32-6.25,3.65-9.71,3.65-4.54,0-8.3-2.34-10.3-6.42-.89-1.83-1.33-3.79-1.33-5.81,0-8.82,7.68-18.56,10.04-21.33,3.61-4.32,7.66-8.32,12.76-8.32,2.7,0,5.41,1.15,8.3,3.52l.6.53c.77.67,1.5,1.31,1.72,1.36.05-.11.38-.94.72-1.83.15-.38.32-.82.52-1.31.47-1.2.93-2.4,1.39-3.59,1.17-3.01,2.37-6.13,3.7-9.25,1.33-3.08,2.76-6.19,4.15-9.2,2.88-6.26,5.85-12.72,8.13-19.26.79-2.26,2.13-5.27,4.67-5.27,1.39,0,2.97,1.11,4.58,3.21,1.02,1.4,1.54,2.97,1.54,4.69,0,2.55-1.03,5.08-2.02,7.52-5.3,12.52-12.68,29.62-13.15,30.68-1.78,3.41-3.82,7.55-5.49,12.64-2.14,6.48-3.22,11.74-3.22,15.61,0,4.96,1.77,6.1,2.31,6.33.67.32,1.63.49,2.73.49,5.24,0,12.21-4.27,15.95-6.56,1.22-.75,2.11-1.29,2.61-1.5.22-.15.96-.61,1.5-.2.22.17.45.52.25,1.21-.85,2.94-10.24,14.6-18.57,15.29-.47.04-.95.06-1.41.06h.02ZM214,191.69v2.62c0,6.33,1.7,11.24,4.93,14.2,2.5,2.3,5.8,3.34,9.53,3.02,7.38-.61,15.85-10.99,17.31-13.93-.53.25-1.35.76-2.37,1.38-3.84,2.36-11,6.74-16.59,6.74-.9,0-2.19-.1-3.23-.6-.89-.38-3.03-1.89-3.03-7.44,0-4.01,1.1-9.39,3.28-15.99,1.7-5.17,3.76-9.36,5.55-12.79.46-1.02,7.83-18.11,13.12-30.62.99-2.44,1.93-4.75,1.93-7.06,0-1.45-.44-2.79-1.3-3.96-1.82-2.37-3.04-2.72-3.61-2.72-1.32,0-2.48,1.46-3.52,4.45-2.3,6.6-5.29,13.09-8.18,19.37-1.38,3-2.81,6.11-4.14,9.17-1.32,3.1-2.52,6.21-3.68,9.21-.46,1.19-.93,2.39-1.4,3.6-.2.49-.37.92-.52,1.3-.7,1.79-1.02,2.6-1.89,2.6-.6,0-1.15-.49-2.5-1.66l-.59-.51c-2.68-2.2-5.08-3.23-7.51-3.23-4.59,0-8.4,3.79-11.83,7.88-2.29,2.7-9.75,12.14-9.75,20.54,0,1.83.41,3.61,1.21,5.27,2.45,4.99,6.81,5.73,9.2,5.73,3.18,0,6.43-1.23,8.93-3.37,2.58-2.11,4.45-3.94,5.71-5.58.16-.21.39-.5.66-.83.89-1.1,2.24-2.76,3.09-4.47l1.16-2.35.03.03ZM192.2,201c-.44,0-.79-.13-1.05-.4-.44-.45-.42-1.1-.41-1.53v-.17c0-6.55,13.08-22.62,18.42-22.62,1.36,0,3.3,2.23,3.3,3.45,0,4.02-15.41,21.27-20.25,21.27h-.01ZM209.16,177.5c-4.66,0-17.2,15.6-17.2,21.4v.2c0,.17-.02.57.06.65,0,0,.06.03.18.03,4.02,0,19.03-16.83,19.03-20.05,0-.64-1.47-2.23-2.08-2.23h.01Z"/>
        </g>
        <g>
          <path class="cls-1" d="M241.94,190.8c1.41-5.27,7.77-25.53,11.02-26.74,2.4-.81,8.62,3.24,8.62,7.43,0,2.97-3.39,5.81-10.17,21.75-1.27,3.78-4.38,12.16-1.84,11.62.71-.14,4.24-4.59,15.83-16.75,2.4-2.84,5.65-6.89,8.2-9.72,1.84-2.02,5.23-8.37,7.91-8.78,2.26-.27,5.23,2.03,6.22,3.78,1.55,2.84.85,3.38-.28,6.62-2.97,7.56-8.48,24.85-2.69,24.85,6.5,0,17.81-7.02,19.78-7.83,4.52-2.84-7.35,14.32-17.1,15.13-7.92.67-15.97-5.54-12.58-21.75-8.76,8.78-20.49,24.85-26.85,24.18-11.73-1.89-8.2-16.34-6.08-23.77v-.02Z"/>
          <path class="cls-1" d="M248.4,215.2c-.15,0-.3,0-.45-.02-3.18-.51-5.52-1.94-6.99-4.24-3.31-5.2-1.53-13.58.39-20.3.15-.55,7.26-25.6,11.4-27.15,1.57-.53,3.83.51,5.43,1.66,2.51,1.8,4.01,4.18,4.01,6.35,0,1.57-.79,2.99-2.36,5.83-1.71,3.1-4.31,7.79-7.86,16.15l-.38,1.11c-.76,2.21-3.06,8.93-2.26,9.69.4-.17,1.8-1.71,3.93-4.04,2.44-2.68,6.14-6.72,11.69-12.55.81-.96,1.74-2.08,2.72-3.26,1.87-2.26,3.8-4.59,5.47-6.45.52-.58,1.21-1.57,1.95-2.63,1.96-2.82,4.18-6.02,6.33-6.35,2.6-.31,5.79,2.21,6.84,4.09,1.44,2.63,1.07,3.61.26,5.76-.15.4-.32.84-.5,1.36-3.01,7.68-6.71,20.22-4.55,23.38.31.45.72.66,1.29.66,4.97,0,13.17-4.41,17.11-6.53,1.16-.62,2-1.07,2.45-1.26.22-.15.95-.61,1.5-.2.22.17.45.52.25,1.21-.85,2.94-10.24,14.6-18.57,15.29-4.07.35-7.86-1.09-10.39-3.94-2.31-2.61-4.65-7.56-3.21-16.54-1.95,2.04-4,4.35-6.15,6.77-7.08,7.96-14.39,16.17-19.35,16.17v-.02ZM253.68,164.56c-.2,0-.37.03-.53.08-2.61.98-8.64,18.89-10.63,26.32h0c-1.09,3.81-3.97,13.92-.53,19.32,1.27,2,3.33,3.24,6.12,3.69,4.31.45,11.96-8.16,18.72-15.75,2.69-3.02,5.22-5.87,7.6-8.25l1.45-1.45-.42,2.01c-2.04,9.75.26,14.89,2.56,17.47,2.27,2.56,5.68,3.85,9.37,3.54,7.38-.61,15.85-11,17.31-13.93-.5.23-1.29.66-2.26,1.18-4.34,2.33-12.41,6.68-17.68,6.68-.97,0-1.77-.41-2.3-1.2-3.2-4.7,3.63-22.48,4.42-24.49.18-.5.35-.96.5-1.37.78-2.05.98-2.6-.18-4.74-.88-1.56-3.62-3.73-5.61-3.47-1.61.24-3.85,3.48-5.49,5.84-.79,1.13-1.47,2.11-2.04,2.75-1.65,1.84-3.57,4.17-5.43,6.41-.97,1.18-1.91,2.31-2.75,3.3-5.57,5.85-9.26,9.88-11.7,12.56-3.29,3.61-3.93,4.29-4.48,4.4-.69.14-1.09-.17-1.27-.37-1.05-1.18-.14-4.59,2.02-10.89l.39-1.15c3.6-8.46,6.21-13.18,7.93-16.31,1.47-2.66,2.21-3.99,2.21-5.24,0-2.09-1.81-4.14-3.51-5.36-1.37-.98-2.82-1.57-3.79-1.57h0Z"/>
        </g>
        <g>
          <path class="cls-1" d="M332.09,189.72c1.7-26.2,24.87-69.56,42.11-69.56,11.02,0,15.54,7.29,15.54,16.07s-5.09,18.23-7.77,19.85-10.32,1.62-8.34-1.89,7.07-16.61,7.07-19.72-1.84-4.05-4.1-4.05c-14.56,0-33.63,43.22-35.33,62.13-1.13,12.02,4.1,16.48,11.02,16.48,10.6,0,21.48-9.59,28.69-15.67,6.92-5-7.49,23.1-30.67,23.1-8.2,0-19.5-6.08-18.23-26.74h.01Z"/>
          <path class="cls-1" d="M350.32,217.07c-4.86,0-9.55-2.02-12.85-5.53-4.57-4.86-6.58-12.21-5.99-21.86h0c1.75-27.06,25.39-70.13,42.72-70.13,10.12,0,16.16,6.24,16.16,16.68,0,9.11-5.23,18.67-8.07,20.38-2.09,1.26-7.22,1.75-8.98.03-.42-.41-1.01-1.31-.2-2.75,2.08-3.69,6.99-16.56,6.99-19.42,0-2.35-1.11-3.44-3.49-3.44-14.24,0-33.03,42.73-34.72,61.57-.55,5.87.39,10.19,2.81,12.84,1.79,1.97,4.35,2.97,7.61,2.97,9.94,0,20.44-8.88,27.38-14.75l.91-.77c.68-.49,1.61-1.05,2.3-.54.77.56.35,1.87.21,2.3-2.01,6.17-15.14,22.41-32.78,22.41h0ZM332.7,189.76c-.56,9.17,1.39,16.41,5.66,20.95,3.08,3.27,7.44,5.15,11.96,5.15,16.55,0,27.16-14.14,29.11-16.97,2.1-3.04,2.7-4.88,2.69-5.47-.14.05-.39.16-.78.45l-.87.74c-7.08,5.99-17.79,15.04-28.17,15.04-3.56,0-6.5-1.16-8.51-3.37-2.66-2.92-3.71-7.55-3.12-13.78,1.72-19.19,21.16-62.68,35.94-62.68,3.04,0,4.71,1.66,4.71,4.66,0,3.26-5.18,16.53-7.15,20.02-.47.83-.15,1.14-.01,1.27,1.13,1.1,5.55.98,7.5-.2,2.56-1.54,7.48-10.77,7.48-19.33,0-4.65-1.46-15.46-14.93-15.46-16.35,0-39.8,42.77-41.5,68.99h0Z"/>
        </g>
        <g>
          <path class="cls-1" d="M386.64,209.17c-5.09-1.62-6.78-5.54-6.78-10,0-6.08,2.97-13.24,5.37-17.29,2.26-3.78,8.62-16.88,13.57-17.56,2.12-.13,5.94,2.7,6.92,4.46.71,1.49.85,2.16.85,2.57v.27c0,.41.14.67,1.7,1.89,4.52,3.65,9.47,4.86,9.47,10.67,0,.67,0,1.22-.14,1.89-.85,5.94-4.95,9.59-8.76,13.78-4.52,4.86-10.17,10.67-16.68,10.67-1.84,0-3.67-.41-5.51-1.35h0ZM409.24,182.43c0-.67-.28-1.22-.85-1.76,0,.13-6.08-1.89-8.48-.54-5.37,2.97-8.2,11.21-9.61,14.86-.85,2.16-1.69,4.86-1.69,6.08,0,1.08.42,1.62,1.13,1.62,3.95,0,19.5-15.94,19.5-20.26h0Z"/>
          <path class="cls-1" d="M392.15,211.13c-2,0-3.93-.47-5.74-1.39-4.75-1.53-7.16-5.09-7.16-10.56,0-5.81,2.74-13.02,5.46-17.6.36-.61.83-1.46,1.39-2.46,3.06-5.53,8.17-14.78,12.62-15.39,2.4-.16,6.47,2.86,7.54,4.76.82,1.73.93,2.44.93,2.87v.27c0,.13.11.35,1.46,1.41,1.15.92,2.31,1.68,3.44,2.42,3.36,2.19,6.26,4.08,6.26,8.73,0,.69,0,1.28-.16,2.02-.76,5.33-4,8.81-7.44,12.48-.49.52-.98,1.04-1.46,1.58-4.03,4.33-10.11,10.87-17.13,10.87h-.01ZM398.94,164.93h-.11c-3.8.52-8.92,9.79-11.67,14.77-.56,1.02-1.04,1.88-1.41,2.5-2.63,4.43-5.28,11.4-5.28,16.98,0,4.9,2.14,8.07,6.36,9.41l.09.04c1.68.86,3.39,1.28,5.23,1.28,6.48,0,12.35-6.3,16.23-10.48.48-.53.98-1.06,1.47-1.59,3.3-3.53,6.42-6.87,7.13-11.86.14-.65.14-1.14.14-1.81,0-3.98-2.52-5.63-5.71-7.71-1.15-.75-2.34-1.53-3.53-2.48-1.58-1.24-1.92-1.66-1.92-2.37v-.27c0-.43-.27-1.21-.79-2.3-.92-1.62-4.42-4.12-6.22-4.12h-.01ZM389.74,203.3c-.41,0-1.74-.16-1.74-2.23,0-1.38.94-4.25,1.74-6.3l.31-.81c1.53-4.01,4.38-11.48,9.57-14.36,2.09-1.18,6.3-.14,8.16.32v-.67l1.03.99c.71.68,1.04,1.37,1.04,2.2,0,4.49-15.79,20.87-20.11,20.87h0ZM402.25,180.27c-.81,0-1.53.11-2.03.39-4.81,2.66-7.55,9.86-9.03,13.73l-.31.82c-.97,2.49-1.65,4.9-1.65,5.86,0,1.01.39,1.01.52,1.01,3.71,0,18.89-15.79,18.89-19.65,0-.43-.16-.79-.52-1.18-.14-.03-.33-.08-.57-.13-.98-.24-3.38-.84-5.3-.84h0Z"/>
        </g>
        <g>
          <path class="cls-1" d="M421.25,192.29c1.41-6.75,4.66-14.86,5.79-17.56,1.84-4.32,3.11-4.59,6.08-3.78,4.95,1.08,5.23,2.84,4.24,4.73-5.65,11.34-7.63,18.91-7.63,24.45,0,.81,0,3.38,1.98,4.46,6.5,3.51,18.94-6.62,21.2-7.56,4.52-2.84-7.35,14.32-17.1,15.13-7.92.67-17.81-4.46-14.56-19.85v-.02ZM436.38,159.87c-.57-.95-.85-2.7-.85-5,0-3.11,1.84-10.81,5.93-10.81,1.27,0,2.69.67,4.38,2.3.99.95,1.27,2.3,1.27,4.05,0,3.24-4.52,11.35-8.2,11.35-.85,0-1.84-.54-2.54-1.89h0Z"/>
          <path class="cls-1" d="M434.42,212.81c-4.33,0-8.34-1.67-10.94-4.61-2.29-2.59-4.63-7.47-2.82-16.04h0c1.46-6.95,4.83-15.28,5.83-17.67,1.94-4.56,3.47-5.04,6.8-4.14,2.77.6,4.34,1.46,4.91,2.69.39.83.29,1.78-.3,2.91-5.08,10.2-7.56,18.11-7.56,24.16,0,.75,0,3.01,1.66,3.92,4.84,2.61,13.73-3.19,18-5.97,1.25-.81,2.15-1.4,2.67-1.62.22-.15.96-.61,1.51-.2.22.17.45.52.25,1.21-.85,2.94-10.24,14.6-18.57,15.29-.48.04-.97.06-1.45.06h.01ZM431.07,171.19c-1.37,0-2.23.88-3.46,3.77-.99,2.36-4.32,10.6-5.76,17.44h0c-1.35,6.4-.47,11.58,2.54,14.98,2.63,2.97,6.87,4.52,11.37,4.14,7.38-.61,15.85-10.99,17.31-13.93-.53.27-1.4.83-2.4,1.48-4.81,3.14-13.77,8.99-19.25,6.02-1.52-.83-2.3-2.51-2.3-4.99,0-6.25,2.52-14.33,7.69-24.72.41-.78.5-1.36.28-1.83-.39-.83-1.77-1.52-4.1-2.02-.76-.21-1.38-.35-1.93-.35h.01ZM438.92,162.37c-1.22,0-2.34-.8-3.08-2.2-.61-1.04-.93-2.82-.93-5.29,0-3.25,1.95-11.42,6.54-11.42,1.5,0,3.07.81,4.8,2.46,1.29,1.23,1.46,2.96,1.46,4.49,0,3.47-4.7,11.96-8.81,11.96h.02ZM441.46,144.68c-3.51,0-5.32,7.15-5.32,10.19,0,2.2.27,3.86.76,4.68l.02.03c.52.99,1.25,1.56,2,1.56,3.1,0,7.58-7.54,7.58-10.74,0-1.81-.32-2.89-1.08-3.61-1.5-1.43-2.79-2.13-3.96-2.13v.02Z"/>
        </g>
        <g>
          <path class="cls-1" d="M484.42,206.6c-2.54-3.78-2.83-12.43.43-23.23-2.4,1.48-12.01,11.61-12.86,12.29-3.11,2.97-8.06,7.97-10.18,10.54-1.84,2.43-4.1,5.54-6.78,5.54-1.13,0-2.4-.67-3.81-2.3-1.13-1.49-1.84-2.43-1.84-4.19,0-3.11,4.52-14.59,10.6-36.6,1.27-4.86,2.54-4.59,6.36-2.7,4.38,2.16,4.1,3.65,3.53,6.08-.71,1.49-3.96,11.35-7.35,19.58,5.51-5.4,7.07-6.75,13.43-12.7,2.97-2.84,9.61-7.43,12.72-7.43,2.26,0,6.5,2.97,6.5,5.67s-1.13,5.81-1.7,8.37c-.57,2.3-1.84,7.29-1.84,11.75s.57,8.78,4.95,8.78c3.95,0,9.19-3.92,12.01-5.54.71-.41,2.97-2.03,5.23-2.97,1.27-.54-.43,4.19-3.67,7.29-3.96,3.92-6.64,5.94-10.74,6.89-1.13.27-2.4.41-3.67.41-3.25,0-8.62-1.62-11.31-5.54h0Z"/>
          <path class="cls-1" d="M495.73,212.75c-3.15,0-8.89-1.55-11.81-5.8h0c-2.68-3.99-2.72-12.47-.17-21.94-2.27,1.98-6.08,5.83-8.55,8.34-1.67,1.69-2.55,2.57-2.82,2.79-2.85,2.73-7.91,7.81-10.09,10.45l-.15.2c-1.87,2.48-4.2,5.56-7.1,5.56-1.39,0-2.83-.84-4.27-2.5-1.17-1.53-1.99-2.61-1.99-4.59,0-1.7,1.15-5.37,3.25-12.03,1.88-5.96,4.44-14.12,7.37-24.73.66-2.52,1.35-3.74,2.38-4.2,1.25-.57,2.73.07,4.84,1.12,4.64,2.29,4.49,4.06,3.86,6.76-.3.67-.98,2.57-1.84,4.97-1.2,3.36-2.77,7.74-4.45,12.02,2.79-2.71,4.55-4.35,7.33-6.93,1.13-1.05,2.43-2.26,4.03-3.76,2.85-2.72,9.68-7.59,13.13-7.59,2.55,0,7.11,3.17,7.11,6.28,0,1.99-.57,4.12-1.12,6.17-.22.81-.43,1.59-.59,2.33l-.06.26c-.57,2.31-1.76,7.13-1.76,11.36,0,5.04.73,8.17,4.34,8.17,2.98,0,6.88-2.45,9.72-4.24.74-.46,1.41-.89,1.99-1.22.16-.09.41-.25.73-.46,1.05-.68,2.8-1.81,4.57-2.55.53-.22.92.01,1.1.28.76,1.15-1.48,5.49-4.12,8.02-3.93,3.89-6.71,6.05-11.03,7.04-1.15.27-2.47.42-3.81.42h-.02ZM484.93,206.26c2.65,3.87,7.91,5.27,10.8,5.27,1.25,0,2.47-.13,3.53-.39,4.03-.93,6.68-3,10.45-6.73,2.26-2.16,3.59-4.93,3.87-6.09-1.51.69-2.99,1.65-3.9,2.24-.34.22-.61.39-.78.49-.56.32-1.22.74-1.94,1.19-2.97,1.87-7.03,4.43-10.37,4.43-5.56,0-5.56-6.11-5.56-9.39,0-4.38,1.21-9.29,1.8-11.65l.06-.25c.16-.74.38-1.55.6-2.37.53-1.98,1.08-4.02,1.08-5.86,0-2.33-3.89-5.06-5.89-5.06-2.83,0-9.27,4.37-12.3,7.26-1.61,1.5-2.91,2.71-4.04,3.76-3.39,3.15-5.26,4.89-9.38,8.93l-2.12,2.08,1.13-2.75c2.08-5.04,4.06-10.6,5.52-14.66.91-2.53,1.56-4.36,1.85-4.96.49-2.15.75-3.29-3.25-5.27-1.97-.98-3.1-1.42-3.79-1.1-.64.29-1.16,1.34-1.71,3.41-2.94,10.64-5.51,18.81-7.39,24.78-1.92,6.11-3.19,10.15-3.19,11.67s.61,2.37,1.71,3.82c1.18,1.35,2.31,2.06,3.33,2.06,2.3,0,4.42-2.81,6.13-5.08l.17-.22c2.23-2.7,7.33-7.82,10.24-10.61.27-.22,1.42-1.38,2.76-2.73,3.37-3.41,8.47-8.56,10.2-9.63l1.37-.85-.46,1.54c-2.96,9.85-3.16,18.76-.5,22.71h-.03Z"/>
        </g>
      </g>
    </g>
  </g>
  <g>
    <path class="cls-1" d="M137.84,45.59c-6.64-11.23-15.7-20.29-26.93-26.93-11.25-6.65-23.69-10.02-36.98-10.02s-25.73,3.37-36.98,10.02c-11.23,6.64-20.29,15.7-26.93,26.93C3.37,56.84,0,69.28,0,82.57c0,8.17,1.04,15.5,3.09,21.78,2.04,6.25,10.66,22.34,11.03,23.04.45.81,52.69,84.44,58.65,93.98l1.16,1.85,59.02-95.79c.4-.68,9.76-16.83,11.8-23.07,2.05-6.29,3.09-13.62,3.09-21.78,0-13.29-3.37-25.73-10.02-36.98h.02ZM144.29,82.57c0,7.79-.98,14.75-2.92,20.68-1.9,5.82-11.4,22.23-11.48,22.37l-55.96,91.59c-8.09-13.06-55.7-89.89-56.66-91.54-.33-.62-8.88-16.65-10.76-22.42-1.94-5.93-2.92-12.89-2.92-20.68,0-12.64,3.2-24.47,9.52-35.16,6.33-10.71,14.96-19.34,25.67-25.67,10.69-6.32,22.52-9.52,35.16-9.52s24.47,3.2,35.16,9.52c10.71,6.33,19.35,14.97,25.67,25.67,6.32,10.69,9.52,22.52,9.52,35.16h0Z"/>
    <path class="cls-1" d="M123.21,66.08c-8.73-27.21-37.86-42.2-65.07-33.47-27.21,8.73-42.2,37.86-33.47,65.07s37.86,42.2,65.07,33.47c27.21-8.73,42.2-37.86,33.47-65.07ZM73.96,35.88c7.07-2.27,14.63,1.63,16.9,8.69,2.27,7.07-1.63,14.63-8.69,16.9-7.07,2.26-14.63-1.63-16.9-8.69-2.27-7.07,1.63-14.63,8.69-16.9ZM81.4,78.68c-.86.28-1.78-.2-2.06-1.06s.2-1.78,1.06-2.06,1.78.2,2.06,1.06-.2,1.78-1.06,2.06ZM81.31,88.19c-.86.28-1.78-.2-2.06-1.06s.2-1.78,1.06-2.05,1.78.2,2.06,1.06-.2,1.78-1.06,2.06h0ZM71.17,88c.86-.28,1.78.2,2.06,1.06.27.86-.2,1.78-1.06,2.06s-1.78-.2-2.06-1.06.2-1.78,1.06-2.06ZM71.34,72.34c.86-.28,1.78.2,2.06,1.06s-.2,1.78-1.06,2.06-1.78-.2-2.06-1.06.2-1.78,1.06-2.06ZM70.7,82.7c-.63-1.98.46-4.1,2.44-4.74,1.98-.63,4.1.46,4.74,2.44s-.46,4.1-2.44,4.74c-1.98.63-4.1-.46-4.74-2.44ZM66.98,83.3c-.86.28-1.78-.2-2.06-1.06s.2-1.78,1.06-2.06,1.78.2,2.06,1.06-.2,1.78-1.06,2.06ZM40.74,54.54c7.07-2.27,14.63,1.63,16.9,8.69,2.27,7.07-1.63,14.63-8.69,16.9-7.07,2.27-14.63-1.63-16.9-8.69-2.27-7.07,1.63-14.63,8.69-16.9ZM53.88,115.79c-7.07,2.27-14.63-1.63-16.9-8.69-2.27-7.07,1.63-14.63,8.69-16.9,7.07-2.27,14.63,1.63,16.9,8.69,2.27,7.07-1.63,14.63-8.69,16.9ZM93.48,122.05c-7.07,2.27-14.63-1.63-16.9-8.69-2.27-7.07,1.63-14.63,8.69-16.9,7.07-2.27,14.63,1.63,16.9,8.69,2.27,7.07-1.63,14.63-8.69,16.9ZM108.98,86.7c-7.07,2.26-14.63-1.63-16.9-8.69-2.27-7.07,1.63-14.63,8.69-16.9,7.07-2.27,14.63,1.63,16.9,8.69,2.27,7.07-1.63,14.63-8.69,16.9Z"/>
    <path class="cls-2" d="M128.13,64.5c-9.6-29.93-41.64-46.41-71.57-36.82-29.93,9.6-46.41,41.64-36.82,71.57,9.6,29.93,41.64,46.41,71.57,36.82,29.93-9.6,46.41-41.64,36.82-71.57h0Z"/>
  </g>
</svg>